<?xml version="1.0" standalone="no"?>
<!DOCTYPE svg PUBLIC "-//W3C//DTD SVG 20010904//EN"
 "http://www.w3.org/TR/2001/REC-SVG-20010904/DTD/svg10.dtd">
<svg version="1.0" xmlns="http://www.w3.org/2000/svg"
 width="512.000000pt" height="512.000000pt" viewBox="0 0 512.000000 512.000000"
 preserveAspectRatio="xMidYMid meet">

<g transform="translate(0.000000,512.000000) scale(0.100000,-0.100000)"
fill="#000000" stroke="none">
<path d="M4130 4275 c-267 -267 -491 -485 -498 -485 -7 0 -53 20 -102 45 -212
106 -425 179 -655 222 -110 20 -427 29 -540 14 -667 -88 -1353 -508 -1971
-1207 -147 -165 -208 -251 -208 -289 0 -60 143 -235 418 -511 239 -239 474
-434 671 -559 33 -21 62 -40 65 -42 2 -2 -206 -214 -463 -471 -452 -453 -467
-469 -467 -506 0 -55 43 -96 101 -96 l44 0 482 482 482 482 121 -58 c342 -162
619 -229 940 -229 302 0 534 50 850 185 491 209 1066 672 1481 1194 55 69 69
93 69 121 0 46 -9 61 -108 182 -260 317 -580 614 -899 837 -68 47 -123 89
-123 92 0 4 209 216 465 472 l465 465 0 44 c0 58 -41 101 -96 101 -37 0 -54
-15 -524 -485z m-1351 -410 c128 -18 266 -53 391 -98 100 -36 309 -128 310
-137 0 -3 -51 -56 -113 -118 l-114 -114 -64 49 c-179 135 -393 204 -634 204
-228 0 -425 -60 -610 -184 -73 -49 -192 -163 -249 -237 -168 -219 -248 -507
-216 -775 22 -186 81 -342 183 -493 32 -45 57 -86 57 -90 0 -4 -58 -66 -130
-137 l-129 -129 -143 96 c-303 204 -583 459 -856 776 -39 47 -72 89 -72 95 0
17 139 176 280 321 549 565 1135 905 1680 975 106 14 318 12 429 -4z m1062
-454 c173 -121 355 -276 540 -460 163 -163 339 -360 339 -378 0 -15 -161 -196
-299 -337 -497 -507 -1020 -827 -1531 -938 -92 -20 -133 -22 -335 -22 -264 0
-339 11 -570 88 -126 42 -335 133 -335 145 0 4 49 55 109 115 l109 109 85 -57
c546 -363 1280 -168 1568 419 136 277 150 586 39 872 -31 82 -101 207 -144
258 l-25 30 137 137 136 137 31 -19 c16 -10 82 -55 146 -99z m-1113 23 c42 -8
114 -30 158 -48 86 -35 214 -113 214 -131 0 -5 -276 -286 -614 -624 l-614
-614 -32 44 c-17 24 -49 78 -70 119 -260 515 43 1138 610 1255 91 18 256 18
348 -1z m612 -469 c57 -117 81 -210 87 -349 6 -131 -5 -217 -43 -329 -50 -147
-151 -293 -272 -393 -76 -63 -238 -147 -327 -169 -209 -53 -429 -32 -610 57
-70 34 -155 87 -155 97 0 3 276 282 613 619 l612 613 27 -33 c16 -18 46 -68
68 -113z"/>
</g>
</svg>
